<mxfile host="app.diagrams.net" agent="Mozilla/5.0 (Windows NT 10.0; Win64; x64) AppleWebKit/537.36 (KHTML, like Gecko) Chrome/133.0.0.0 Safari/537.36 Edg/133.0.0.0" version="26.0.11">
  <diagram name="Page-1" id="iLtLGhJoXfoRHe2laWTk">
    <mxGraphModel dx="1001" dy="463" grid="1" gridSize="10" guides="1" tooltips="1" connect="1" arrows="1" fold="1" page="1" pageScale="1" pageWidth="850" pageHeight="1100" math="0" shadow="0">
      <root>
        <mxCell id="0" />
        <mxCell id="1" parent="0" />
        <mxCell id="2rMHzWM-z_1OdCPlIjtP-59" style="edgeStyle=orthogonalEdgeStyle;rounded=0;orthogonalLoop=1;jettySize=auto;html=1;entryX=1;entryY=0.25;entryDx=0;entryDy=0;" edge="1" parent="1" source="2rMHzWM-z_1OdCPlIjtP-6" target="2rMHzWM-z_1OdCPlIjtP-31">
          <mxGeometry relative="1" as="geometry" />
        </mxCell>
        <mxCell id="2rMHzWM-z_1OdCPlIjtP-69" style="edgeStyle=orthogonalEdgeStyle;rounded=0;orthogonalLoop=1;jettySize=auto;html=1;" edge="1" parent="1" source="2rMHzWM-z_1OdCPlIjtP-6">
          <mxGeometry relative="1" as="geometry">
            <mxPoint x="780" y="390" as="targetPoint" />
          </mxGeometry>
        </mxCell>
        <mxCell id="2rMHzWM-z_1OdCPlIjtP-6" value="" style="rounded=1;whiteSpace=wrap;html=1;" vertex="1" parent="1">
          <mxGeometry x="490" y="31" width="250" height="329" as="geometry" />
        </mxCell>
        <mxCell id="2rMHzWM-z_1OdCPlIjtP-9" value="Transfer Service" style="swimlane;fontStyle=0;childLayout=stackLayout;horizontal=1;startSize=30;horizontalStack=0;resizeParent=1;resizeParentMax=0;resizeLast=0;collapsible=1;marginBottom=0;whiteSpace=wrap;html=1;" vertex="1" parent="1">
          <mxGeometry x="550" y="31" width="140" height="120" as="geometry" />
        </mxCell>
        <mxCell id="2rMHzWM-z_1OdCPlIjtP-10" value="InterBank" style="text;strokeColor=none;fillColor=none;align=left;verticalAlign=middle;spacingLeft=4;spacingRight=4;overflow=hidden;points=[[0,0.5],[1,0.5]];portConstraint=eastwest;rotatable=0;whiteSpace=wrap;html=1;" vertex="1" parent="2rMHzWM-z_1OdCPlIjtP-9">
          <mxGeometry y="30" width="140" height="30" as="geometry" />
        </mxCell>
        <mxCell id="2rMHzWM-z_1OdCPlIjtP-11" value="Intrabenk" style="text;strokeColor=none;fillColor=none;align=left;verticalAlign=middle;spacingLeft=4;spacingRight=4;overflow=hidden;points=[[0,0.5],[1,0.5]];portConstraint=eastwest;rotatable=0;whiteSpace=wrap;html=1;" vertex="1" parent="2rMHzWM-z_1OdCPlIjtP-9">
          <mxGeometry y="60" width="140" height="30" as="geometry" />
        </mxCell>
        <mxCell id="2rMHzWM-z_1OdCPlIjtP-12" value="own account" style="text;strokeColor=none;fillColor=none;align=left;verticalAlign=middle;spacingLeft=4;spacingRight=4;overflow=hidden;points=[[0,0.5],[1,0.5]];portConstraint=eastwest;rotatable=0;whiteSpace=wrap;html=1;" vertex="1" parent="2rMHzWM-z_1OdCPlIjtP-9">
          <mxGeometry y="90" width="140" height="30" as="geometry" />
        </mxCell>
        <mxCell id="2rMHzWM-z_1OdCPlIjtP-13" value="CoreApi" style="swimlane;fontStyle=0;childLayout=stackLayout;horizontal=1;startSize=30;horizontalStack=0;resizeParent=1;resizeParentMax=0;resizeLast=0;collapsible=1;marginBottom=0;whiteSpace=wrap;html=1;" vertex="1" parent="1">
          <mxGeometry x="555" y="199" width="140" height="150" as="geometry" />
        </mxCell>
        <mxCell id="2rMHzWM-z_1OdCPlIjtP-14" value="Name Enquiry" style="text;strokeColor=none;fillColor=none;align=left;verticalAlign=middle;spacingLeft=4;spacingRight=4;overflow=hidden;points=[[0,0.5],[1,0.5]];portConstraint=eastwest;rotatable=0;whiteSpace=wrap;html=1;" vertex="1" parent="2rMHzWM-z_1OdCPlIjtP-13">
          <mxGeometry y="30" width="140" height="30" as="geometry" />
        </mxCell>
        <mxCell id="2rMHzWM-z_1OdCPlIjtP-15" value="Get Acct Detail" style="text;strokeColor=none;fillColor=none;align=left;verticalAlign=middle;spacingLeft=4;spacingRight=4;overflow=hidden;points=[[0,0.5],[1,0.5]];portConstraint=eastwest;rotatable=0;whiteSpace=wrap;html=1;" vertex="1" parent="2rMHzWM-z_1OdCPlIjtP-13">
          <mxGeometry y="60" width="140" height="30" as="geometry" />
        </mxCell>
        <mxCell id="2rMHzWM-z_1OdCPlIjtP-16" value="Posting" style="text;strokeColor=none;fillColor=none;align=left;verticalAlign=middle;spacingLeft=4;spacingRight=4;overflow=hidden;points=[[0,0.5],[1,0.5]];portConstraint=eastwest;rotatable=0;whiteSpace=wrap;html=1;" vertex="1" parent="2rMHzWM-z_1OdCPlIjtP-13">
          <mxGeometry y="90" width="140" height="30" as="geometry" />
        </mxCell>
        <mxCell id="2rMHzWM-z_1OdCPlIjtP-52" value="Notification Service" style="text;strokeColor=none;fillColor=none;align=left;verticalAlign=middle;spacingLeft=4;spacingRight=4;overflow=hidden;points=[[0,0.5],[1,0.5]];portConstraint=eastwest;rotatable=0;whiteSpace=wrap;html=1;" vertex="1" parent="2rMHzWM-z_1OdCPlIjtP-13">
          <mxGeometry y="120" width="140" height="30" as="geometry" />
        </mxCell>
        <mxCell id="2rMHzWM-z_1OdCPlIjtP-39" style="edgeStyle=orthogonalEdgeStyle;rounded=0;orthogonalLoop=1;jettySize=auto;html=1;" edge="1" parent="1" source="2rMHzWM-z_1OdCPlIjtP-17" target="2rMHzWM-z_1OdCPlIjtP-35">
          <mxGeometry relative="1" as="geometry" />
        </mxCell>
        <mxCell id="2rMHzWM-z_1OdCPlIjtP-17" value="Imperva WAF" style="image;aspect=fixed;html=1;points=[];align=center;fontSize=12;image=img/lib/azure2/networking/Web_Application_Firewall_Policies_WAF.svg;" vertex="1" parent="1">
          <mxGeometry x="60" y="280" width="68" height="68" as="geometry" />
        </mxCell>
        <mxCell id="2rMHzWM-z_1OdCPlIjtP-42" style="edgeStyle=orthogonalEdgeStyle;rounded=0;orthogonalLoop=1;jettySize=auto;html=1;entryX=0.25;entryY=1;entryDx=0;entryDy=0;" edge="1" parent="1" source="2rMHzWM-z_1OdCPlIjtP-18" target="2rMHzWM-z_1OdCPlIjtP-41">
          <mxGeometry relative="1" as="geometry" />
        </mxCell>
        <mxCell id="2rMHzWM-z_1OdCPlIjtP-56" style="edgeStyle=orthogonalEdgeStyle;rounded=0;orthogonalLoop=1;jettySize=auto;html=1;" edge="1" parent="1" source="2rMHzWM-z_1OdCPlIjtP-18" target="2rMHzWM-z_1OdCPlIjtP-33">
          <mxGeometry relative="1" as="geometry" />
        </mxCell>
        <mxCell id="2rMHzWM-z_1OdCPlIjtP-57" style="edgeStyle=orthogonalEdgeStyle;rounded=0;orthogonalLoop=1;jettySize=auto;html=1;" edge="1" parent="1" source="2rMHzWM-z_1OdCPlIjtP-18" target="2rMHzWM-z_1OdCPlIjtP-31">
          <mxGeometry relative="1" as="geometry" />
        </mxCell>
        <mxCell id="2rMHzWM-z_1OdCPlIjtP-18" value="" style="rounded=1;whiteSpace=wrap;html=1;" vertex="1" parent="1">
          <mxGeometry x="200" y="52" width="200" height="288" as="geometry" />
        </mxCell>
        <mxCell id="2rMHzWM-z_1OdCPlIjtP-19" value="Mobile APP API&lt;div&gt;192.168.61.17&lt;/div&gt;" style="swimlane;fontStyle=0;childLayout=stackLayout;horizontal=1;startSize=30;horizontalStack=0;resizeParent=1;resizeParentMax=0;resizeLast=0;collapsible=1;marginBottom=0;whiteSpace=wrap;html=1;" vertex="1" parent="1">
          <mxGeometry x="235" y="70" width="140" height="180" as="geometry" />
        </mxCell>
        <mxCell id="2rMHzWM-z_1OdCPlIjtP-20" value="Login" style="text;strokeColor=none;fillColor=none;align=left;verticalAlign=middle;spacingLeft=4;spacingRight=4;overflow=hidden;points=[[0,0.5],[1,0.5]];portConstraint=eastwest;rotatable=0;whiteSpace=wrap;html=1;" vertex="1" parent="2rMHzWM-z_1OdCPlIjtP-19">
          <mxGeometry y="30" width="140" height="30" as="geometry" />
        </mxCell>
        <mxCell id="2rMHzWM-z_1OdCPlIjtP-21" value="Sign-up" style="text;strokeColor=none;fillColor=none;align=left;verticalAlign=middle;spacingLeft=4;spacingRight=4;overflow=hidden;points=[[0,0.5],[1,0.5]];portConstraint=eastwest;rotatable=0;whiteSpace=wrap;html=1;" vertex="1" parent="2rMHzWM-z_1OdCPlIjtP-19">
          <mxGeometry y="60" width="140" height="30" as="geometry" />
        </mxCell>
        <mxCell id="2rMHzWM-z_1OdCPlIjtP-22" value="Account Opening" style="text;strokeColor=none;fillColor=none;align=left;verticalAlign=middle;spacingLeft=4;spacingRight=4;overflow=hidden;points=[[0,0.5],[1,0.5]];portConstraint=eastwest;rotatable=0;whiteSpace=wrap;html=1;" vertex="1" parent="2rMHzWM-z_1OdCPlIjtP-19">
          <mxGeometry y="90" width="140" height="30" as="geometry" />
        </mxCell>
        <mxCell id="2rMHzWM-z_1OdCPlIjtP-23" value="Transfer" style="text;strokeColor=none;fillColor=none;align=left;verticalAlign=middle;spacingLeft=4;spacingRight=4;overflow=hidden;points=[[0,0.5],[1,0.5]];portConstraint=eastwest;rotatable=0;whiteSpace=wrap;html=1;" vertex="1" parent="2rMHzWM-z_1OdCPlIjtP-19">
          <mxGeometry y="120" width="140" height="30" as="geometry" />
        </mxCell>
        <mxCell id="2rMHzWM-z_1OdCPlIjtP-24" value="Account Opening" style="text;strokeColor=none;fillColor=none;align=left;verticalAlign=middle;spacingLeft=4;spacingRight=4;overflow=hidden;points=[[0,0.5],[1,0.5]];portConstraint=eastwest;rotatable=0;whiteSpace=wrap;html=1;" vertex="1" parent="2rMHzWM-z_1OdCPlIjtP-19">
          <mxGeometry y="150" width="140" height="30" as="geometry" />
        </mxCell>
        <mxCell id="2rMHzWM-z_1OdCPlIjtP-25" value="Auth Serv" style="verticalLabelPosition=bottom;html=1;verticalAlign=top;align=center;strokeColor=none;fillColor=#00BEF2;shape=mxgraph.azure.access_control;" vertex="1" parent="1">
          <mxGeometry x="475" y="280" width="50" height="50" as="geometry" />
        </mxCell>
        <mxCell id="2rMHzWM-z_1OdCPlIjtP-29" value="End Users" style="swimlane;whiteSpace=wrap;html=1;" vertex="1" parent="1">
          <mxGeometry x="30" y="90" width="90" height="110" as="geometry" />
        </mxCell>
        <mxCell id="2rMHzWM-z_1OdCPlIjtP-1" value="" style="sketch=0;points=[[0,0,0],[0.25,0,0],[0.5,0,0],[0.75,0,0],[1,0,0],[0,1,0],[0.25,1,0],[0.5,1,0],[0.75,1,0],[1,1,0],[0,0.25,0],[0,0.5,0],[0,0.75,0],[1,0.25,0],[1,0.5,0],[1,0.75,0]];outlineConnect=0;fontColor=#232F3E;fillColor=light-dark(#156fe5, #ff81d9);strokeColor=#ffffff;dashed=0;verticalLabelPosition=bottom;verticalAlign=top;align=center;html=1;fontSize=12;fontStyle=0;aspect=fixed;shape=mxgraph.aws4.resourceIcon;resIcon=mxgraph.aws4.mobile_application;" vertex="1" parent="2rMHzWM-z_1OdCPlIjtP-29">
          <mxGeometry x="5" y="25" width="78" height="78" as="geometry" />
        </mxCell>
        <mxCell id="2rMHzWM-z_1OdCPlIjtP-31" value="&lt;b&gt;172.18.14.143&lt;/b&gt;" style="image;aspect=fixed;perimeter=ellipsePerimeter;html=1;align=center;shadow=0;dashed=0;spacingTop=3;image=img/lib/active_directory/database.svg;" vertex="1" parent="1">
          <mxGeometry x="390" y="380" width="116.08" height="85.9" as="geometry" />
        </mxCell>
        <mxCell id="2rMHzWM-z_1OdCPlIjtP-33" value="&lt;b&gt;10.110.0.31&lt;/b&gt;" style="image;aspect=fixed;perimeter=ellipsePerimeter;html=1;align=center;shadow=0;dashed=0;spacingTop=3;image=img/lib/active_directory/database_partition_2.svg;" vertex="1" parent="1">
          <mxGeometry x="240" y="380" width="50" height="37" as="geometry" />
        </mxCell>
        <mxCell id="2rMHzWM-z_1OdCPlIjtP-40" value="" style="edgeStyle=orthogonalEdgeStyle;rounded=0;orthogonalLoop=1;jettySize=auto;html=1;" edge="1" parent="1" source="2rMHzWM-z_1OdCPlIjtP-35" target="2rMHzWM-z_1OdCPlIjtP-24">
          <mxGeometry relative="1" as="geometry" />
        </mxCell>
        <mxCell id="2rMHzWM-z_1OdCPlIjtP-35" value="Auth Serv" style="verticalLabelPosition=bottom;html=1;verticalAlign=top;align=center;strokeColor=none;fillColor=#00BEF2;shape=mxgraph.azure.access_control;" vertex="1" parent="1">
          <mxGeometry x="210" y="299" width="50" height="50" as="geometry" />
        </mxCell>
        <mxCell id="2rMHzWM-z_1OdCPlIjtP-36" style="edgeStyle=orthogonalEdgeStyle;rounded=0;orthogonalLoop=1;jettySize=auto;html=1;" edge="1" parent="1" source="2rMHzWM-z_1OdCPlIjtP-1" target="2rMHzWM-z_1OdCPlIjtP-17">
          <mxGeometry relative="1" as="geometry" />
        </mxCell>
        <mxCell id="2rMHzWM-z_1OdCPlIjtP-41" value="" style="image;html=1;image=img/lib/clip_art/networking/Firewall-page1_128x128.png" vertex="1" parent="1">
          <mxGeometry x="420" y="115" width="40" height="49" as="geometry" />
        </mxCell>
        <mxCell id="2rMHzWM-z_1OdCPlIjtP-45" style="edgeStyle=orthogonalEdgeStyle;rounded=0;orthogonalLoop=1;jettySize=auto;html=1;entryX=0;entryY=0.59;entryDx=0;entryDy=0;entryPerimeter=0;" edge="1" parent="1" source="2rMHzWM-z_1OdCPlIjtP-41" target="2rMHzWM-z_1OdCPlIjtP-25">
          <mxGeometry relative="1" as="geometry" />
        </mxCell>
        <mxCell id="2rMHzWM-z_1OdCPlIjtP-49" style="edgeStyle=orthogonalEdgeStyle;rounded=0;orthogonalLoop=1;jettySize=auto;html=1;entryX=0.25;entryY=0;entryDx=0;entryDy=0;" edge="1" parent="1" source="2rMHzWM-z_1OdCPlIjtP-12" target="2rMHzWM-z_1OdCPlIjtP-13">
          <mxGeometry relative="1" as="geometry">
            <Array as="points">
              <mxPoint x="590" y="200" />
            </Array>
          </mxGeometry>
        </mxCell>
        <mxCell id="2rMHzWM-z_1OdCPlIjtP-50" value="&lt;b&gt;10.110.0.12&lt;/b&gt;" style="image;aspect=fixed;perimeter=ellipsePerimeter;html=1;align=center;shadow=0;dashed=0;spacingTop=3;image=img/lib/active_directory/database_partition_2.svg;" vertex="1" parent="1">
          <mxGeometry x="570" y="390" width="67.57" height="50" as="geometry" />
        </mxCell>
        <mxCell id="2rMHzWM-z_1OdCPlIjtP-55" value="" style="rounded=1;whiteSpace=wrap;html=1;" vertex="1" parent="1">
          <mxGeometry x="695" y="520" width="155" height="130" as="geometry" />
        </mxCell>
        <mxCell id="2rMHzWM-z_1OdCPlIjtP-60" value="NIP Service" style="swimlane;fontStyle=0;childLayout=stackLayout;horizontal=1;startSize=30;horizontalStack=0;resizeParent=1;resizeParentMax=0;resizeLast=0;collapsible=1;marginBottom=0;whiteSpace=wrap;html=1;" vertex="1" parent="1">
          <mxGeometry x="710" y="540" width="140" height="90" as="geometry" />
        </mxCell>
        <mxCell id="2rMHzWM-z_1OdCPlIjtP-61" value="NIPOutward&amp;nbsp;" style="text;strokeColor=none;fillColor=none;align=left;verticalAlign=middle;spacingLeft=4;spacingRight=4;overflow=hidden;points=[[0,0.5],[1,0.5]];portConstraint=eastwest;rotatable=0;whiteSpace=wrap;html=1;" vertex="1" parent="2rMHzWM-z_1OdCPlIjtP-60">
          <mxGeometry y="30" width="140" height="30" as="geometry" />
        </mxCell>
        <mxCell id="2rMHzWM-z_1OdCPlIjtP-62" value="NIP Inward" style="text;strokeColor=none;fillColor=none;align=left;verticalAlign=middle;spacingLeft=4;spacingRight=4;overflow=hidden;points=[[0,0.5],[1,0.5]];portConstraint=eastwest;rotatable=0;whiteSpace=wrap;html=1;" vertex="1" parent="2rMHzWM-z_1OdCPlIjtP-60">
          <mxGeometry y="60" width="140" height="30" as="geometry" />
        </mxCell>
        <mxCell id="2rMHzWM-z_1OdCPlIjtP-68" style="edgeStyle=orthogonalEdgeStyle;rounded=0;orthogonalLoop=1;jettySize=auto;html=1;entryX=0.5;entryY=0;entryDx=0;entryDy=0;" edge="1" parent="1" source="2rMHzWM-z_1OdCPlIjtP-64" target="2rMHzWM-z_1OdCPlIjtP-55">
          <mxGeometry relative="1" as="geometry" />
        </mxCell>
        <mxCell id="2rMHzWM-z_1OdCPlIjtP-64" value="" style="image;html=1;image=img/lib/clip_art/networking/Firewall_128x128.png" vertex="1" parent="1">
          <mxGeometry x="732.5" y="387.9" width="80" height="80" as="geometry" />
        </mxCell>
        <mxCell id="2rMHzWM-z_1OdCPlIjtP-70" value="&amp;nbsp; &amp;nbsp;172.18.14.180/186/187" style="text;html=1;align=center;verticalAlign=middle;whiteSpace=wrap;rounded=0;" vertex="1" parent="1">
          <mxGeometry x="610" y="160" width="60" height="30" as="geometry" />
        </mxCell>
      </root>
    </mxGraphModel>
  </diagram>
</mxfile>
